<?xml version="1.0" encoding="UTF-8"?>
<svg width="12px" height="12px" viewBox="0 0 12 12" version="1.1" xmlns="http://www.w3.org/2000/svg" xmlns:xlink="http://www.w3.org/1999/xlink">
    <!-- Generator: Sketch 54.1 (76490) - https://sketchapp.com -->
    <title></title>
    <desc></desc>
    <g id="Symbols" stroke="none" stroke-width="1" fill="none" fill-rule="evenodd">
        <g id="图标/PC信息提示小图标">
            <circle id="椭圆形" stroke="#F0F0F0" fill="#FFFFFF" cx="6" cy="6" r="5.5"></circle>
            <g id="编组" transform="translate(4.500000, 2.500000)" fill="#999999">
                <path d="M0.0800566828,3.06852455 C0.124900483,3.06852455 0.911129147,2.29322739 0.911129147,2.43610853 C0.911129147,2.53139276 0.634104992,3.5892739 0.0800566828,5.60976486 C-0.106184863,6.30561757 0.0325590982,6.65384755 0.495876329,6.65384755 C1.46306473,6.65384755 2.00236264,5.90873127 2.13320966,5.4642093 C2.00236264,5.08847287 1.31425958,6.11778811 1.19081997,6.02094057 C1.06732882,5.92409302 2.03451723,3.00342119 2.13320966,2.66684496 C2.23188921,2.32977778 1.8451066,1.61216796 1.19081997,1.8651137 C0.495876329,2.13450646 -0.163189694,3.06852455 0.0800566828,3.06852455" id="Fill-1"></path>
                <path d="M1.34274396,0.674419897 C1.34274396,1.03975581 1.63808696,1.33595736 2.00236393,1.33595736 C2.36665378,1.33595736 2.66193237,1.03975581 2.66193237,0.674419897 C2.66193237,0.309071059 2.36665378,0.0129211886 2.00236393,0.0129211886 C1.63808696,0.0129211886 1.34274396,0.309071059 1.34274396,0.674419897" id="Fill-3"></path>
            </g>
        </g>
    </g>
</svg>